# xmcd
#
# Track frame offsets:
#	179
#	17588
#	32198
#	46255
#	64229
#	75911
#	91719
#	104692
#	116049
#	130291
#	147603
#	164533
#	185666
#	198401
#	210644
#	225290
#	237444
#	249836
#	263850
#	277854
#
# Disc length: 3854 seconds
#
# Revision: 4
# Processed by: cddbd v1.5.2PL0 Copyright (c) Steve Scherf et al.
# Submitted via: EZCDAudioConverter 4.0.5.1
#
DISCID=150f0c14
DTITLE=Various Artist - We Walk the Line
DYEAR=2012
DGENRE=Country
TTITLE0=Brandi Carlile - Folsom Prison Blues
TTITLE1=Ronnie Dunn - Ring of Fire
TTITLE2=Buddy Miller - Hey Porter
TTITLE3=Lucinda Williams - Hurt
TTITLE4=Rhett Miller - Wreck of the Old 97
TTITLE5=Carolina Chocolate Drops - Jackson
TTITLE6=Iron and Wine - The Long Black Veil
TTITLE7=Kris Kristofferson - Big River
TTITLE8=Shelby Lynne - Why Me Lord
TTITLE9=Pat Monahan - Help Me Make It through the Night
TTITLE10=Shelby Lynne and Pat Monahan - It Ain't Me Babe
TTITLE11=Jamey Johnson and Kris Kristofferson - Sunday Morning Coming Down
TTITLE12=Andy Grammer - Get Rhythm
TTITLE13=Shooter Jennings and Amy Nelson - Cocaine Blues
TTITLE14=Amy Lee - I´m So Lonesome I Could Cry
TTITLE15=Sheryl Crow - Cry, Cry, Cry
TTITLE16=Willie Nelson - I Still Miss Someone
TTITLE17=Willie Nelson and Sheryl Crow - If I Were a Carpenter
TTITLE18=Willie Nelson, Kris Kristofferson, Shooter Jennings and Jamey Johnson /
TTITLE18=Highwayman
TTITLE19=Full Ensemble - I Walk the Line
EXTD=
EXTT0=
EXTT1=
EXTT2=
EXTT3=
EXTT4=
EXTT5=
EXTT6=
EXTT7=
EXTT8=
EXTT9=
EXTT10=
EXTT11=
EXTT12=
EXTT13=
EXTT14=
EXTT15=
EXTT16=
EXTT17=
EXTT18=
EXTT19=
PLAYORDER=
